<svg width="140" height="72" viewBox="0 0 140 72" fill="none" xmlns="http://www.w3.org/2000/svg">
<path d="M133.001 28.6844H111.989V7.18337C111.989 3.22873 108.856 0.0225022 104.991 0.0225022C103.156 0.0225022 101.487 0.744314 100.24 1.92621L100.228 1.93643C100.104 2.05503 99.9823 2.17771 99.8664 2.30449L99.1909 2.99358C99.067 3.104 98.9471 3.21851 98.8292 3.33711L83.9744 18.5361L69.1197 3.33711C69.0077 3.2226 68.8918 3.11218 68.7739 3.00585L68.0605 2.27586C66.7834 0.887442 64.9728 0.0184086 62.9623 0.0184086C59.0973 0.0184086 55.9636 3.22465 55.9636 7.17928V28.6599H42.0242V7.16088C42.0242 3.20624 38.8906 0 35.0255 0C34.8536 0 34.6837 0.00613988 34.5159 0.0184086H6.9987C3.13363 0.0184086 0 3.22465 0 7.17928C0 11.1339 3.13363 14.3401 6.9987 14.3401H28.0308V36.3176C28.2806 40.0391 31.3083 42.9816 35.0095 42.9816H63.0023C66.6236 42.9816 69.6013 40.1679 69.963 36.563V24.4476L79.0202 33.7146C80.3891 35.1153 82.1838 35.8146 83.9784 35.8125C85.7731 35.8146 87.5677 35.1153 88.9367 33.7146L97.9938 24.4476V35.8207C97.9938 37.7428 98.7332 39.487 99.9383 40.7732C101.213 42.1453 103.014 43 105.008 43H133.001C136.866 43 140 39.7938 140 35.8391C140 31.8845 136.866 28.6782 133.001 28.6782V28.6844Z" fill="black"/>
<path d="M19.0566 65.62L19.8966 63.72C20.4966 64.1333 21.1499 64.4533 21.8566 64.68C22.5766 64.8933 23.2899 65.0067 23.9966 65.02C24.7032 65.0333 25.3432 64.9533 25.9166 64.78C26.5032 64.6067 26.9699 64.3467 27.3166 64C27.6632 63.6533 27.8366 63.22 27.8366 62.7C27.8366 62.0733 27.5766 61.6067 27.0566 61.3C26.5499 60.98 25.8566 60.82 24.9766 60.82H21.7166V58.78H24.7766C25.5632 58.78 26.1699 58.62 26.5966 58.3C27.0366 57.98 27.2566 57.5467 27.2566 57C27.2566 56.5467 27.1099 56.1733 26.8166 55.88C26.5366 55.5867 26.1499 55.3667 25.6566 55.22C25.1766 55.0733 24.6299 55.0067 24.0166 55.02C23.4166 55.02 22.7899 55.1133 22.1366 55.3C21.4832 55.4733 20.8632 55.7333 20.2766 56.08L19.4566 53.98C20.3366 53.5133 21.2566 53.1867 22.2166 53C23.1899 52.8133 24.1299 52.76 25.0366 52.84C25.9432 52.92 26.7566 53.1267 27.4766 53.46C28.2099 53.7933 28.7966 54.2333 29.2366 54.78C29.6766 55.3133 29.8966 55.9467 29.8966 56.68C29.8966 57.3467 29.7166 57.94 29.3566 58.46C29.0099 58.9667 28.5299 59.36 27.9166 59.64C27.3032 59.92 26.5899 60.06 25.7766 60.06L25.8766 59.42C26.7966 59.42 27.5966 59.58 28.2766 59.9C28.9699 60.2067 29.5032 60.6333 29.8766 61.18C30.2632 61.7267 30.4566 62.36 30.4566 63.08C30.4566 63.76 30.2832 64.3667 29.9366 64.9C29.5899 65.42 29.1166 65.86 28.5166 66.22C27.9166 66.5667 27.2299 66.8267 26.4566 67C25.6832 67.16 24.8699 67.22 24.0166 67.18C23.1632 67.14 22.3099 66.9933 21.4566 66.74C20.6166 66.4867 19.8166 66.1133 19.0566 65.62ZM39.6248 67V64.84L39.4848 64.38V60.6C39.4848 59.8667 39.2648 59.3 38.8248 58.9C38.3848 58.4867 37.7182 58.28 36.8248 58.28C36.2248 58.28 35.6315 58.3733 35.0448 58.56C34.4715 58.7467 33.9848 59.0067 33.5848 59.34L32.6048 57.52C33.1782 57.08 33.8582 56.7533 34.6448 56.54C35.4448 56.3133 36.2715 56.2 37.1248 56.2C38.6715 56.2 39.8648 56.5733 40.7048 57.32C41.5582 58.0533 41.9848 59.1933 41.9848 60.74V67H39.6248ZM36.2648 67.14C35.4648 67.14 34.7648 67.0067 34.1648 66.74C33.5648 66.46 33.0982 66.08 32.7648 65.6C32.4448 65.1067 32.2848 64.5533 32.2848 63.94C32.2848 63.34 32.4248 62.8 32.7048 62.32C32.9982 61.84 33.4715 61.46 34.1248 61.18C34.7782 60.9 35.6448 60.76 36.7248 60.76H39.8248V62.42H36.9048C36.0515 62.42 35.4782 62.56 35.1848 62.84C34.8915 63.1067 34.7448 63.44 34.7448 63.84C34.7448 64.2933 34.9248 64.6533 35.2848 64.92C35.6448 65.1867 36.1448 65.32 36.7848 65.32C37.3982 65.32 37.9448 65.18 38.4248 64.9C38.9182 64.62 39.2715 64.2067 39.4848 63.66L39.9048 65.16C39.6648 65.7867 39.2315 66.2733 38.6048 66.62C37.9915 66.9667 37.2115 67.14 36.2648 67.14ZM52.3984 65.84V58.44H48.2984L48.2384 60.16C48.2118 60.7733 48.1718 61.3667 48.1184 61.94C48.0651 62.5 47.9784 63.02 47.8584 63.5C47.7384 63.9667 47.5651 64.3533 47.3384 64.66C47.1118 64.9667 46.8118 65.1667 46.4384 65.26L43.9584 64.88C44.3584 64.88 44.6784 64.7533 44.9184 64.5C45.1718 64.2333 45.3651 63.8733 45.4984 63.42C45.6451 62.9533 45.7518 62.4267 45.8184 61.84C45.8851 61.24 45.9318 60.62 45.9584 59.98L46.0984 56.32H54.8984V65.84H52.3984ZM43.5784 69.38V64.88H56.4784V69.38H54.1384V67H45.8984V69.38H43.5784ZM65.1913 67V64.84L65.0513 64.38V60.6C65.0513 59.8667 64.8313 59.3 64.3913 58.9C63.9513 58.4867 63.2846 58.28 62.3913 58.28C61.7913 58.28 61.1979 58.3733 60.6113 58.56C60.0379 58.7467 59.5513 59.0067 59.1513 59.34L58.1713 57.52C58.7446 57.08 59.4246 56.7533 60.2113 56.54C61.0113 56.3133 61.8379 56.2 62.6913 56.2C64.2379 56.2 65.4313 56.5733 66.2713 57.32C67.1246 58.0533 67.5513 59.1933 67.5513 60.74V67H65.1913ZM61.8313 67.14C61.0313 67.14 60.3313 67.0067 59.7313 66.74C59.1313 66.46 58.6646 66.08 58.3313 65.6C58.0113 65.1067 57.8513 64.5533 57.8513 63.94C57.8513 63.34 57.9913 62.8 58.2713 62.32C58.5646 61.84 59.0379 61.46 59.6913 61.18C60.3446 60.9 61.2113 60.76 62.2913 60.76H65.3913V62.42H62.4713C61.6179 62.42 61.0446 62.56 60.7513 62.84C60.4579 63.1067 60.3113 63.44 60.3113 63.84C60.3113 64.2933 60.4913 64.6533 60.8513 64.92C61.2113 65.1867 61.7113 65.32 62.3513 65.32C62.9646 65.32 63.5113 65.18 63.9913 64.9C64.4846 64.62 64.8379 64.2067 65.0513 63.66L65.4713 65.16C65.2313 65.7867 64.7979 66.2733 64.1713 66.62C63.5579 66.9667 62.7779 67.14 61.8313 67.14ZM77.3848 62.78C76.8782 63.02 76.3382 63.22 75.7648 63.38C75.2048 63.5267 74.6115 63.6 73.9848 63.6C72.6382 63.6 71.5915 63.2867 70.8448 62.66C70.0982 62.0333 69.7248 61.06 69.7248 59.74V56.32H72.2248V59.58C72.2248 60.2867 72.4248 60.8 72.8248 61.12C73.2382 61.44 73.8048 61.6 74.5248 61.6C75.0048 61.6 75.4848 61.54 75.9648 61.42C76.4448 61.3 76.9182 61.1333 77.3848 60.92V62.78ZM77.2048 67V56.32H79.7048V67H77.2048ZM83.0667 67V56.32H85.5667V60.66H90.9467V56.32H93.4467V67H90.9467V62.78H85.5667V67H83.0667ZM96.7972 67V56.32H99.2972V63.36L105.197 56.32H107.477V67H104.977V59.96L99.0972 67H96.7972ZM118.5 67L114.64 61.88L116.68 60.62L121.44 67H118.5ZM110.84 67V56.32H113.34V67H110.84ZM112.6 62.72V60.64H116.22V62.72H112.6ZM116.92 61.96L114.58 61.68L118.5 56.32H121.18L116.92 61.96Z" fill="#BABABA"/>
</svg>
